<svg width="779" height="145" viewBox="0 0 779 145" fill="none" xmlns="http://www.w3.org/2000/svg">
<path d="M140.492 84.4062C140.492 92.9349 138.995 100.78 136 107.941C133.07 115.103 129.001 121.288 123.793 126.496C118.585 131.639 112.4 135.676 105.238 138.605C98.0768 141.535 90.2969 143 81.8984 143H13.3438C11.5208 143 9.82812 142.674 8.26562 142.023C6.70312 141.372 5.33594 140.493 4.16406 139.387C3.05729 138.215 2.17839 136.848 1.52734 135.285C0.876302 133.723 0.550781 132.03 0.550781 130.207V15.7539C0.550781 13.9961 0.876302 12.3359 1.52734 10.7734C2.17839 9.21094 3.05729 7.84375 4.16406 6.67188C5.33594 5.5 6.70312 4.58854 8.26562 3.9375C9.82812 3.28646 11.5208 2.96094 13.3438 2.96094H81.8984C90.2969 2.96094 98.0768 4.42578 105.238 7.35547C112.4 10.2852 118.585 14.3542 123.793 19.5625C129.001 24.7057 133.07 30.8906 136 38.1172C138.995 45.2786 140.492 53.0911 140.492 61.5547V84.4062ZM115.102 61.5547C115.102 56.6068 114.288 52.082 112.66 47.9805C111.098 43.8789 108.852 40.3958 105.922 37.5312C102.992 34.6016 99.4766 32.3555 95.375 30.793C91.3385 29.1654 86.8464 28.3516 81.8984 28.3516H25.9414V117.609H81.8984C86.8464 117.609 91.3385 116.828 95.375 115.266C99.4766 113.638 102.992 111.392 105.922 108.527C108.852 105.598 111.098 102.115 112.66 98.0781C114.288 93.9766 115.102 89.4193 115.102 84.4062V61.5547ZM302.797 143H277.406V108.625H188.148V143H162.758V72.9805C162.758 62.7591 164.516 53.3516 168.031 44.7578C171.547 36.1641 176.43 28.7747 182.68 22.5898C188.93 16.4049 196.319 11.5872 204.848 8.13672C213.376 4.6862 222.686 2.96094 232.777 2.96094H290.004C291.762 2.96094 293.422 3.28646 294.984 3.9375C296.547 4.58854 297.914 5.5 299.086 6.67188C300.258 7.84375 301.169 9.21094 301.82 10.7734C302.471 12.3359 302.797 13.9961 302.797 15.7539V143ZM188.148 83.2344H277.406V28.3516H232.777C231.996 28.3516 230.336 28.4818 227.797 28.7422C225.323 28.9375 222.426 29.4909 219.105 30.4023C215.85 31.3138 212.4 32.7135 208.754 34.6016C205.108 36.4896 201.755 39.0938 198.695 42.4141C195.635 45.7344 193.096 49.901 191.078 54.9141C189.125 59.862 188.148 65.8841 188.148 72.9805V83.2344ZM472.328 132.16C472.328 133.983 471.97 135.676 471.254 137.238C470.603 138.801 469.691 140.168 468.52 141.34C467.413 142.447 466.078 143.326 464.516 143.977C462.953 144.628 461.293 144.953 459.535 144.953C457.973 144.953 456.378 144.66 454.75 144.074C453.188 143.488 451.788 142.544 450.551 141.242L357.777 44.3672V143H332.387V13.8008C332.387 11.1966 333.103 8.85286 334.535 6.76953C336.033 4.62109 337.921 3.02604 340.199 1.98438C342.608 1.00781 345.082 0.779948 347.621 1.30078C350.16 1.75651 352.341 2.92839 354.164 4.81641L446.938 101.594V2.96094H472.328V132.16ZM640.102 130.207C640.102 132.03 639.776 133.723 639.125 135.285C638.474 136.848 637.562 138.215 636.391 139.387C635.284 140.493 633.949 141.372 632.387 142.023C630.824 142.674 629.132 143 627.309 143H535.707C533.363 143 530.824 142.74 528.09 142.219C525.421 141.633 522.751 140.754 520.082 139.582C517.478 138.41 514.971 136.913 512.562 135.09C510.154 133.202 508.005 130.956 506.117 128.352C504.294 125.682 502.829 122.622 501.723 119.172C500.616 115.656 500.062 111.717 500.062 107.355V38.6055C500.062 36.2617 500.323 33.7552 500.844 31.0859C501.43 28.3516 502.309 25.6823 503.48 23.0781C504.652 20.4089 506.182 17.8698 508.07 15.4609C509.958 13.0521 512.204 10.9362 514.809 9.11328C517.478 7.22526 520.538 5.72786 523.988 4.62109C527.439 3.51432 531.345 2.96094 535.707 2.96094H638.93V28.3516H535.707C532.387 28.3516 529.848 29.2305 528.09 30.9883C526.332 32.7461 525.453 35.3503 525.453 38.8008V107.355C525.453 110.611 526.332 113.15 528.09 114.973C529.913 116.73 532.452 117.609 535.707 117.609H614.711V85.7734H547.133V60.1875H627.309C629.132 60.1875 630.824 60.5456 632.387 61.2617C633.949 61.9128 635.284 62.8242 636.391 63.9961C637.562 65.168 638.474 66.5352 639.125 68.0977C639.776 69.5951 640.102 71.2227 640.102 72.9805V130.207ZM778.578 107.355C778.578 111.717 778.025 115.656 776.918 119.172C775.811 122.622 774.346 125.682 772.523 128.352C770.701 130.956 768.585 133.202 766.176 135.09C763.767 136.913 761.228 138.41 758.559 139.582C755.954 140.754 753.285 141.633 750.551 142.219C747.882 142.74 745.342 143 742.934 143H697.133C693.617 143 689.776 142.382 685.609 141.145C681.443 139.908 677.569 137.889 673.988 135.09C670.473 132.225 667.51 128.547 665.102 124.055C662.758 119.497 661.586 113.931 661.586 107.355V72.9805C661.586 66.4701 662.758 60.9688 665.102 56.4766C667.51 51.9193 670.473 48.2409 673.988 45.4414C677.569 42.5768 681.443 40.526 685.609 39.2891C689.776 38.0521 693.617 37.4336 697.133 37.4336H742.934C749.444 37.4336 754.978 38.6055 759.535 40.9492C764.092 43.293 767.771 46.2552 770.57 49.8359C773.37 53.3516 775.388 57.1927 776.625 61.3594C777.927 65.526 778.578 69.3997 778.578 72.9805V107.355ZM753.188 73.1758C753.188 69.6602 752.309 67.056 750.551 65.3633C748.793 63.6706 746.254 62.8242 742.934 62.8242H697.328C693.943 62.8242 691.371 63.7031 689.613 65.4609C687.855 67.1536 686.977 69.6602 686.977 72.9805V107.355C686.977 110.676 687.855 113.215 689.613 114.973C691.371 116.73 693.943 117.609 697.328 117.609H742.934C746.384 117.609 748.956 116.73 750.648 114.973C752.341 113.215 753.188 110.676 753.188 107.355V73.1758Z" fill="white"/>
<path d="M136 107.941L133.232 106.784L133.228 106.795L133.223 106.806L136 107.941ZM123.793 126.496L125.901 128.631L125.908 128.624L125.914 128.617L123.793 126.496ZM8.26562 142.023L7.11178 144.793L8.26562 142.023ZM4.16406 139.387L1.98302 141.447L2.04188 141.509L2.10419 141.568L4.16406 139.387ZM1.52734 135.285L4.29657 134.131L1.52734 135.285ZM1.52734 10.7734L4.29657 11.9273L1.52734 10.7734ZM4.16406 6.67188L2.04274 4.55055L2.01244 4.58085L1.98302 4.612L4.16406 6.67188ZM123.793 19.5625L121.672 21.6838L121.678 21.6905L121.685 21.6971L123.793 19.5625ZM136 38.1172L133.22 39.2443L133.226 39.2595L133.232 39.2746L136 38.1172ZM112.66 47.9805L109.857 49.0485L109.864 49.0678L109.872 49.087L112.66 47.9805ZM105.922 37.5312L103.801 39.6526L103.812 39.6645L103.825 39.6763L105.922 37.5312ZM95.375 30.793L94.2531 33.5753L94.28 33.5861L94.307 33.5964L95.375 30.793ZM25.9414 28.3516V25.3516H22.9414V28.3516H25.9414ZM25.9414 117.609H22.9414V120.609H25.9414V117.609ZM95.375 115.266L96.458 118.063L96.4698 118.059L96.4815 118.054L95.375 115.266ZM105.922 108.527L108.019 110.672L108.031 110.661L108.043 110.649L105.922 108.527ZM112.66 98.0781L109.872 96.9716L109.867 96.9833L109.862 96.9951L112.66 98.0781ZM137.492 84.4062C137.492 92.5769 136.059 100.024 133.232 106.784L138.768 109.099C141.93 101.536 143.492 93.2929 143.492 84.4062H137.492ZM133.223 106.806C130.437 113.617 126.584 119.462 121.672 124.375L125.914 128.617C131.418 123.113 135.704 116.589 138.777 109.077L133.223 106.806ZM121.685 124.361C116.771 129.214 110.922 133.039 104.102 135.829L106.374 141.382C113.877 138.313 120.398 134.065 125.901 128.631L121.685 124.361ZM104.102 135.829C97.3312 138.599 89.9408 140 81.8984 140V146C90.6529 146 98.8224 144.471 106.374 141.382L104.102 135.829ZM81.8984 140H13.3438V146H81.8984V140ZM13.3438 140C11.8861 140 10.589 139.742 9.41947 139.254L7.11178 144.793C9.06726 145.607 11.1555 146 13.3438 146V140ZM9.41947 139.254C8.17508 138.736 7.11881 138.051 6.22393 137.206L2.10419 141.568C3.55307 142.936 5.23117 144.009 7.11178 144.793L9.41947 139.254ZM6.3451 137.327C5.49994 136.432 4.81507 135.376 4.29657 134.131L-1.24189 136.439C-0.458301 138.32 0.614641 139.998 1.98302 141.447L6.3451 137.327ZM4.29657 134.131C3.80928 132.962 3.55078 131.665 3.55078 130.207H-2.44922C-2.44922 132.395 -2.05667 134.484 -1.24189 136.439L4.29657 134.131ZM3.55078 130.207V15.7539H-2.44922V130.207H3.55078ZM3.55078 15.7539C3.55078 14.3766 3.80374 13.1101 4.29657 11.9273L-1.24189 9.61959C-2.05113 11.5618 -2.44922 13.6156 -2.44922 15.7539H3.55078ZM4.29657 11.9273C4.81507 10.6829 5.49994 9.62662 6.3451 8.73175L1.98302 4.612C0.614641 6.06088 -0.458301 7.73899 -1.24189 9.61959L4.29657 11.9273ZM6.28538 8.7932C7.17418 7.9044 8.21077 7.21036 9.41947 6.70673L7.11178 1.16827C5.19548 1.96673 3.4977 3.0956 2.04274 4.55055L6.28538 8.7932ZM9.41947 6.70673C10.589 6.21943 11.8861 5.96094 13.3438 5.96094V-0.0390625C11.1555 -0.0390625 9.06726 0.353484 7.11178 1.16827L9.41947 6.70673ZM13.3438 5.96094H81.8984V-0.0390625H13.3438V5.96094ZM81.8984 5.96094C89.9408 5.96094 97.3312 7.36209 104.102 10.1321L106.374 4.57883C98.8224 1.48947 90.6529 -0.0390625 81.8984 -0.0390625V5.96094ZM104.102 10.1321C110.914 12.9187 116.759 16.7713 121.672 21.6838L125.914 17.4412C120.41 11.937 113.885 7.65161 106.374 4.57883L104.102 10.1321ZM121.685 21.6971C126.584 26.5353 130.433 32.3707 133.22 39.2443L138.78 36.9901C135.707 29.4105 131.418 22.8762 125.901 17.4279L121.685 21.6971ZM133.232 39.2746C136.06 46.0375 137.492 53.4524 137.492 61.5547H143.492C143.492 52.7299 141.929 44.5198 138.768 36.9598L133.232 39.2746ZM137.492 61.5547V84.4062H143.492V61.5547H137.492ZM118.102 61.5547C118.102 56.2737 117.232 51.3679 115.449 46.8739L109.872 49.087C111.344 52.7962 112.102 56.9399 112.102 61.5547H118.102ZM115.464 46.9125C113.758 42.4344 111.281 38.5757 108.019 35.3862L103.825 39.6763C106.422 42.2159 108.438 45.3234 109.857 49.0485L115.464 46.9125ZM108.043 35.4099C104.797 32.1636 100.916 29.6935 96.443 27.9895L94.307 33.5964C98.0372 35.0175 101.188 37.0396 103.801 39.6526L108.043 35.4099ZM96.4969 28.0106C92.0584 26.2209 87.1786 25.3516 81.8984 25.3516V31.3516C86.5141 31.3516 90.6187 32.1098 94.2531 33.5753L96.4969 28.0106ZM81.8984 25.3516H25.9414V31.3516H81.8984V25.3516ZM22.9414 28.3516V117.609H28.9414V28.3516H22.9414ZM25.9414 120.609H81.8984V114.609H25.9414V120.609ZM81.8984 120.609C87.1643 120.609 92.0304 119.777 96.458 118.063L94.292 112.468C90.6467 113.879 86.5284 114.609 81.8984 114.609V120.609ZM96.4815 118.054C100.924 116.291 104.784 113.836 108.019 110.672L103.825 106.382C101.2 108.948 98.0291 110.985 94.2685 112.477L96.4815 118.054ZM108.043 110.649C111.281 107.411 113.752 103.569 115.458 99.1611L109.862 96.9951C108.444 100.66 106.422 103.785 103.801 106.406L108.043 110.649ZM115.449 99.1847C117.234 94.6863 118.102 89.747 118.102 84.4062H112.102C112.102 89.0915 111.342 93.2668 109.872 96.9716L115.449 99.1847ZM118.102 84.4062V61.5547H112.102V84.4062H118.102ZM302.797 143V146H305.797V143H302.797ZM277.406 143H274.406V146H277.406V143ZM277.406 108.625H280.406V105.625H277.406V108.625ZM188.148 108.625V105.625H185.148V108.625H188.148ZM188.148 143V146H191.148V143H188.148ZM162.758 143H159.758V146H162.758V143ZM188.148 83.2344H185.148V86.2344H188.148V83.2344ZM277.406 83.2344V86.2344H280.406V83.2344H277.406ZM277.406 28.3516H280.406V25.3516H277.406V28.3516ZM227.797 28.7422L228.033 31.7329L228.068 31.7301L228.103 31.7265L227.797 28.7422ZM219.105 30.4023L218.311 27.5094L218.304 27.5114L218.297 27.5135L219.105 30.4023ZM198.695 42.4141L196.489 40.381L198.695 42.4141ZM191.078 54.9141L188.295 53.7937L188.291 53.8031L188.288 53.8126L191.078 54.9141ZM302.797 140H277.406V146H302.797V140ZM280.406 143V108.625H274.406V143H280.406ZM277.406 105.625H188.148V111.625H277.406V105.625ZM185.148 108.625V143H191.148V108.625H185.148ZM188.148 140H162.758V146H188.148V140ZM165.758 143V72.9805H159.758V143H165.758ZM165.758 72.9805C165.758 63.1093 167.454 54.0922 170.808 45.8937L165.255 43.6219C161.577 52.611 159.758 62.409 159.758 72.9805H165.758ZM170.808 45.8937C174.179 37.6523 178.843 30.6075 184.79 24.7222L180.57 20.4574C174.017 26.942 168.914 34.6758 165.255 43.6219L170.808 45.8937ZM184.79 24.7222C190.745 18.8295 197.795 14.2264 205.973 10.9177L203.723 5.3557C194.843 8.9481 187.115 13.9804 180.57 20.4574L184.79 24.7222ZM205.973 10.9177C214.111 7.62527 223.034 5.96094 232.777 5.96094V-0.0390625C222.338 -0.0390625 212.642 1.74713 203.723 5.3557L205.973 10.9177ZM232.777 5.96094H290.004V-0.0390625H232.777V5.96094ZM290.004 5.96094C291.381 5.96094 292.648 6.21389 293.831 6.70673L296.138 1.16827C294.196 0.359025 292.142 -0.0390625 290.004 -0.0390625V5.96094ZM293.831 6.70673C295.039 7.21036 296.076 7.9044 296.965 8.7932L301.207 4.55055C299.752 3.0956 298.055 1.96673 296.138 1.16827L293.831 6.70673ZM296.965 8.7932C297.853 9.68199 298.547 10.7186 299.051 11.9273L304.59 9.61959C303.791 7.7033 302.662 6.00551 301.207 4.55055L296.965 8.7932ZM299.051 11.9273C299.544 13.1101 299.797 14.3766 299.797 15.7539H305.797C305.797 13.6156 305.399 11.5618 304.59 9.61959L299.051 11.9273ZM299.797 15.7539V143H305.797V15.7539H299.797ZM188.148 86.2344H277.406V80.2344H188.148V86.2344ZM280.406 83.2344V28.3516H274.406V83.2344H280.406ZM277.406 25.3516H232.777V31.3516H277.406V25.3516ZM232.777 25.3516C231.814 25.3516 229.995 25.501 227.491 25.7578L228.103 31.7265C230.677 31.4625 232.178 31.3516 232.777 31.3516V25.3516ZM227.561 25.7515C224.841 25.9662 221.75 26.5655 218.311 27.5094L219.9 33.2953C223.102 32.4163 225.804 31.9088 228.033 31.7329L227.561 25.7515ZM218.297 27.5135C214.807 28.4905 211.165 29.9746 207.374 31.9376L210.133 37.2655C213.635 35.4525 216.893 34.1371 219.914 33.2912L218.297 27.5135ZM207.374 31.9376C203.389 34.0014 199.762 36.8294 196.489 40.381L200.901 44.4471C203.748 41.3581 206.827 38.9777 210.133 37.2655L207.374 31.9376ZM196.489 40.381C193.14 44.015 190.423 48.5086 188.295 53.7937L193.861 56.0345C195.77 51.2934 198.131 47.4538 200.901 44.4471L196.489 40.381ZM188.288 53.8126C186.158 59.2069 185.148 65.6258 185.148 72.9805H191.148C191.148 66.1424 192.092 60.517 193.869 56.0156L188.288 53.8126ZM185.148 72.9805V83.2344H191.148V72.9805H185.148ZM471.254 137.238L468.527 135.988L468.505 136.036L468.485 136.084L471.254 137.238ZM468.52 141.34L466.398 139.219L468.52 141.34ZM464.516 143.977L463.362 141.207L464.516 143.977ZM454.75 144.074L453.697 146.883L453.715 146.89L453.734 146.897L454.75 144.074ZM450.551 141.242L452.726 139.176L452.717 139.167L450.551 141.242ZM357.777 44.3672L359.944 42.2922L354.777 36.8971V44.3672H357.777ZM357.777 143V146H360.777V143H357.777ZM332.387 143H329.387V146H332.387V143ZM334.535 6.76953L332.074 5.05415L332.068 5.06203L332.063 5.06994L334.535 6.76953ZM340.199 1.98438L339.072 -0.795843L339.011 -0.771256L338.952 -0.744048L340.199 1.98438ZM347.621 1.30078L347.018 4.23959L347.055 4.24704L347.091 4.25359L347.621 1.30078ZM354.164 4.81641L356.33 2.74034L356.322 2.73262L354.164 4.81641ZM446.938 101.594L444.772 103.67L449.938 109.058V101.594H446.938ZM446.938 2.96094V-0.0390625H443.938V2.96094H446.938ZM472.328 2.96094H475.328V-0.0390625H472.328V2.96094ZM469.328 132.16C469.328 133.578 469.052 134.842 468.527 135.988L473.981 138.488C474.888 136.51 475.328 134.388 475.328 132.16H469.328ZM468.485 136.084C467.981 137.293 467.287 138.33 466.398 139.219L470.641 143.461C472.096 142.006 473.225 140.308 474.023 138.392L468.485 136.084ZM466.398 139.219C465.59 140.026 464.592 140.695 463.362 141.207L465.669 146.746C467.564 145.956 469.235 144.867 470.641 143.461L466.398 139.219ZM463.362 141.207C462.179 141.7 460.912 141.953 459.535 141.953V147.953C461.674 147.953 463.727 147.555 465.669 146.746L463.362 141.207ZM459.535 141.953C458.354 141.953 457.103 141.733 455.766 141.252L453.734 146.897C455.653 147.588 457.591 147.953 459.535 147.953V141.953ZM455.803 141.265C454.698 140.851 453.674 140.174 452.726 139.176L448.376 143.308C449.901 144.914 451.677 146.126 453.697 146.883L455.803 141.265ZM452.717 139.167L359.944 42.2922L355.611 46.4421L448.384 143.317L452.717 139.167ZM354.777 44.3672V143H360.777V44.3672H354.777ZM357.777 140H332.387V146H357.777V140ZM335.387 143V13.8008H329.387V143H335.387ZM335.387 13.8008C335.387 11.7841 335.93 10.0366 337.007 8.46912L332.063 5.06994C330.276 7.66913 329.387 10.6091 329.387 13.8008H335.387ZM336.996 8.48491C338.201 6.75585 339.678 5.52111 341.446 4.7128L338.952 -0.744048C336.163 0.530978 333.864 2.48634 332.074 5.05415L336.996 8.48491ZM341.326 4.76459C343.188 4.00968 345.061 3.83802 347.018 4.23959L348.224 -1.63803C345.103 -2.27813 342.028 -1.99405 339.072 -0.795843L341.326 4.76459ZM347.091 4.25359C348.998 4.59588 350.613 5.45729 352.006 6.90019L356.322 2.73262C354.07 0.399479 351.322 -1.08286 348.151 -1.65203L347.091 4.25359ZM351.998 6.89245L444.772 103.67L449.103 99.5177L356.33 2.74036L351.998 6.89245ZM449.938 101.594V2.96094H443.938V101.594H449.938ZM446.938 5.96094H472.328V-0.0390625H446.938V5.96094ZM469.328 2.96094V132.16H475.328V2.96094H469.328ZM636.391 139.387L634.269 137.265L636.391 139.387ZM528.09 142.219L527.447 145.149L527.487 145.158L527.529 145.166L528.09 142.219ZM520.082 139.582L518.851 142.318L518.863 142.323L518.876 142.329L520.082 139.582ZM512.562 135.09L510.712 137.451L510.732 137.467L510.752 137.482L512.562 135.09ZM506.117 128.352L503.64 130.043L503.664 130.078L503.688 130.112L506.117 128.352ZM501.723 119.172L498.861 120.073L498.864 120.08L498.866 120.088L501.723 119.172ZM500.844 31.0859L497.91 30.4574L497.905 30.4843L497.899 30.5114L500.844 31.0859ZM503.48 23.0781L506.216 24.3092L506.222 24.2967L506.227 24.2841L503.48 23.0781ZM508.07 15.4609L510.431 17.3116L508.07 15.4609ZM514.809 9.11328L516.529 11.571L516.535 11.5668L516.541 11.5625L514.809 9.11328ZM638.93 2.96094H641.93V-0.0390625H638.93V2.96094ZM638.93 28.3516V31.3516H641.93V28.3516H638.93ZM528.09 114.973L525.93 117.055L525.968 117.094L526.007 117.132L528.09 114.973ZM614.711 117.609V120.609H617.711V117.609H614.711ZM614.711 85.7734H617.711V82.7734H614.711V85.7734ZM547.133 85.7734H544.133V88.7734H547.133V85.7734ZM547.133 60.1875V57.1875H544.133V60.1875H547.133ZM632.387 61.2617L631.137 63.9889L631.184 64.0108L631.233 64.0309L632.387 61.2617ZM636.391 63.9961L634.21 66.056L634.239 66.0871L634.269 66.1174L636.391 63.9961ZM639.125 68.0977L636.356 69.2515L636.365 69.2727L636.374 69.2938L639.125 68.0977ZM637.102 130.207C637.102 131.665 636.843 132.962 636.356 134.131L641.894 136.439C642.709 134.484 643.102 132.395 643.102 130.207H637.102ZM636.356 134.131C635.852 135.34 635.158 136.377 634.269 137.265L638.512 141.508C639.967 140.053 641.096 138.355 641.894 136.439L636.356 134.131ZM634.269 137.265C633.462 138.073 632.463 138.741 631.233 139.254L633.541 144.793C635.435 144.003 637.106 142.914 638.512 141.508L634.269 137.265ZM631.233 139.254C630.063 139.742 628.766 140 627.309 140V146C629.497 146 631.585 145.607 633.541 144.793L631.233 139.254ZM627.309 140H535.707V146H627.309V140ZM535.707 140C533.583 140 531.234 139.764 528.651 139.272L527.529 145.166C530.415 145.715 533.144 146 535.707 146V140ZM528.733 139.289C526.269 138.748 523.788 137.933 521.288 136.835L518.876 142.329C521.714 143.575 524.572 144.518 527.447 145.149L528.733 139.289ZM521.313 136.846C518.926 135.772 516.612 134.392 514.373 132.698L510.752 137.482C513.33 139.433 516.03 141.048 518.851 142.318L521.313 136.846ZM514.413 132.729C512.235 131.021 510.279 128.98 508.546 126.591L503.688 130.112C505.732 132.931 508.072 135.382 510.712 137.451L514.413 132.729ZM508.595 126.66C506.953 124.256 505.608 121.464 504.579 118.256L498.866 120.088C500.051 123.781 501.635 127.108 503.64 130.043L508.595 126.66ZM504.584 118.271C503.584 115.095 503.062 111.466 503.062 107.355H497.062C497.062 111.969 497.648 116.218 498.861 120.073L504.584 118.271ZM503.062 107.355V38.6055H497.062V107.355H503.062ZM503.062 38.6055C503.062 36.4823 503.299 34.1698 503.788 31.6605L497.899 30.5114C497.347 33.3406 497.062 36.0411 497.062 38.6055H503.062ZM503.777 31.7145C504.318 29.1918 505.129 26.7242 506.216 24.3092L500.745 21.847C499.488 24.6404 498.542 27.5114 497.91 30.4574L503.777 31.7145ZM506.227 24.2841C507.293 21.8562 508.691 19.5324 510.431 17.3116L505.709 13.6103C503.674 16.2072 502.011 18.9615 500.734 21.8722L506.227 24.2841ZM510.431 17.3116C512.13 15.1444 514.158 13.2308 516.529 11.571L513.088 6.65559C510.251 8.64156 507.787 10.9597 505.709 13.6103L510.431 17.3116ZM516.541 11.5625C518.935 9.86911 521.714 8.50112 524.905 7.47774L523.072 1.76445C519.362 2.95461 516.021 4.58142 513.076 6.66403L516.541 11.5625ZM524.905 7.47774C528.006 6.48302 531.595 5.96094 535.707 5.96094V-0.0390625C531.095 -0.0390625 526.872 0.545628 523.072 1.76445L524.905 7.47774ZM535.707 5.96094H638.93V-0.0390625H535.707V5.96094ZM635.93 2.96094V28.3516H641.93V2.96094H635.93ZM638.93 25.3516H535.707V31.3516H638.93V25.3516ZM535.707 25.3516C531.867 25.3516 528.458 26.3777 525.969 28.867L530.211 33.1096C531.238 32.0833 532.907 31.3516 535.707 31.3516V25.3516ZM525.969 28.867C523.459 31.3763 522.453 34.8689 522.453 38.8008H528.453C528.453 35.8316 529.205 34.1159 530.211 33.1096L525.969 28.867ZM522.453 38.8008V107.355H528.453V38.8008H522.453ZM522.453 107.355C522.453 111.157 523.492 114.526 525.93 117.055L530.249 112.89C529.172 111.773 528.453 110.065 528.453 107.355H522.453ZM526.007 117.132C528.536 119.571 531.906 120.609 535.707 120.609V114.609C532.998 114.609 531.289 113.89 530.172 112.813L526.007 117.132ZM535.707 120.609H614.711V114.609H535.707V120.609ZM617.711 117.609V85.7734H611.711V117.609H617.711ZM614.711 82.7734H547.133V88.7734H614.711V82.7734ZM550.133 85.7734V60.1875H544.133V85.7734H550.133ZM547.133 63.1875H627.309V57.1875H547.133V63.1875ZM627.309 63.1875C628.727 63.1875 629.99 63.4633 631.137 63.9889L633.637 58.5345C631.658 57.6278 629.536 57.1875 627.309 57.1875V63.1875ZM631.233 64.0309C632.427 64.5285 633.406 65.2052 634.21 66.056L638.572 61.9362C637.162 60.4432 635.472 59.2971 633.541 58.4925L631.233 64.0309ZM634.269 66.1174C635.158 67.0062 635.852 68.0428 636.356 69.2515L641.894 66.9438C641.096 65.0275 639.967 63.3297 638.512 61.8748L634.269 66.1174ZM636.374 69.2938C636.848 70.3856 637.102 71.6023 637.102 72.9805H643.102C643.102 70.843 642.704 68.8045 641.876 66.9015L636.374 69.2938ZM637.102 72.9805V130.207H643.102V72.9805H637.102ZM776.918 119.172L779.775 120.088L779.777 120.08L779.78 120.073L776.918 119.172ZM772.523 128.352L774.981 130.072L774.991 130.058L775.001 130.043L772.523 128.352ZM766.176 135.09L767.986 137.482L768.006 137.467L768.026 137.451L766.176 135.09ZM758.559 139.582L757.353 136.835L757.34 136.841L757.327 136.846L758.559 139.582ZM750.551 142.219L751.125 145.163L751.152 145.158L751.179 145.152L750.551 142.219ZM685.609 141.145L684.756 144.02L685.609 141.145ZM673.988 135.09L672.093 137.416L672.117 137.435L672.141 137.453L673.988 135.09ZM665.102 124.055L662.434 125.427L662.445 125.45L662.458 125.472L665.102 124.055ZM665.102 56.4766L662.449 55.0746L662.446 55.0817L662.442 55.0889L665.102 56.4766ZM673.988 45.4414L675.857 47.7883L675.862 47.784L673.988 45.4414ZM685.609 39.2891L684.756 36.4131L685.609 39.2891ZM770.57 49.8359L768.207 51.6837L768.215 51.6942L768.223 51.7047L770.57 49.8359ZM776.625 61.3594L773.749 62.2132L773.755 62.2337L773.762 62.2542L776.625 61.3594ZM689.613 65.4609L691.694 67.6219L691.715 67.6023L691.735 67.5823L689.613 65.4609ZM750.648 114.973L752.809 117.054L750.648 114.973ZM775.578 107.355C775.578 111.466 775.056 115.095 774.056 118.271L779.78 120.073C780.993 116.218 781.578 111.969 781.578 107.355H775.578ZM774.061 118.256C773.032 121.464 771.687 124.256 770.046 126.66L775.001 130.043C777.005 127.108 778.59 123.781 779.775 120.088L774.061 118.256ZM770.066 126.631C768.406 129.002 766.492 131.03 764.325 132.729L768.026 137.451C770.677 135.374 772.995 132.909 774.981 130.072L770.066 126.631ZM764.365 132.698C762.137 134.384 759.8 135.761 757.353 136.835L759.765 142.329C762.656 141.06 765.397 139.441 767.986 137.482L764.365 132.698ZM757.327 136.846C754.913 137.933 752.445 138.745 749.922 139.285L751.179 145.152C754.125 144.521 756.996 143.575 759.79 142.318L757.327 136.846ZM749.976 139.274C747.472 139.763 745.127 140 742.934 140V146C745.558 146 748.291 145.716 751.125 145.163L749.976 139.274ZM742.934 140H697.133V146H742.934V140ZM697.133 140C693.965 140 690.415 139.442 686.463 138.269L684.756 144.02C689.137 145.321 693.269 146 697.133 146V140ZM686.463 138.269C682.673 137.143 679.134 135.305 675.836 132.726L672.141 137.453C676.004 140.474 680.212 142.672 684.756 144.02L686.463 138.269ZM675.883 132.764C672.711 130.179 669.99 126.823 667.745 122.637L662.458 125.472C665.031 130.271 668.235 134.272 672.093 137.416L675.883 132.764ZM667.769 122.683C665.697 118.653 664.586 113.585 664.586 107.355H658.586C658.586 114.277 659.819 120.342 662.434 125.427L667.769 122.683ZM664.586 107.355V72.9805H658.586V107.355H664.586ZM664.586 72.9805C664.586 66.8196 665.696 61.8234 667.761 57.8643L662.442 55.0889C659.82 60.1141 658.586 66.1205 658.586 72.9805H664.586ZM667.754 57.8785C669.998 53.6333 672.709 50.2949 675.857 47.7882L672.12 43.0946C668.236 46.1868 665.023 50.2052 662.449 55.0746L667.754 57.8785ZM675.862 47.784C679.158 45.1479 682.688 43.2857 686.463 42.165L684.756 36.4131C680.197 37.7663 675.981 40.0057 672.114 43.0988L675.862 47.784ZM686.463 42.165C690.415 40.9917 693.965 40.4336 697.133 40.4336V34.4336C693.269 34.4336 689.137 35.1125 684.756 36.4131L686.463 42.165ZM697.133 40.4336H742.934V34.4336H697.133V40.4336ZM742.934 40.4336C749.092 40.4336 754.129 41.5426 758.163 43.6171L760.907 38.2814C755.826 35.6683 749.796 34.4336 742.934 34.4336V40.4336ZM758.163 43.6171C762.384 45.7878 765.707 48.486 768.207 51.6837L772.934 47.9882C769.835 44.0244 765.801 40.7982 760.907 38.2814L758.163 43.6171ZM768.223 51.7047C770.791 54.9295 772.625 58.4282 773.749 62.2132L779.501 60.5056C778.151 55.9572 775.948 51.7736 772.917 47.9672L768.223 51.7047ZM773.762 62.2542C774.992 66.1923 775.578 69.7612 775.578 72.9805H781.578C781.578 69.0383 780.862 64.8598 779.488 60.4646L773.762 62.2542ZM775.578 72.9805V107.355H781.578V72.9805H775.578ZM756.188 73.1758C756.188 69.2077 755.195 65.6706 752.632 63.2023L748.47 67.5242C749.422 68.4414 750.188 70.1126 750.188 73.1758H756.188ZM752.632 63.2023C750.138 60.8014 746.745 59.8242 742.934 59.8242V65.8242C745.763 65.8242 747.447 66.5397 748.47 67.5242L752.632 63.2023ZM742.934 59.8242H697.328V65.8242H742.934V59.8242ZM697.328 59.8242C693.442 59.8242 689.991 60.8401 687.492 63.3396L691.735 67.5823C692.751 66.5661 694.443 65.8242 697.328 65.8242V59.8242ZM687.532 63.3C685 65.7388 683.977 69.1482 683.977 72.9805H689.977C689.977 70.1721 690.711 68.5685 691.694 67.6219L687.532 63.3ZM683.977 72.9805V107.355H689.977V72.9805H683.977ZM683.977 107.355C683.977 111.196 685.003 114.605 687.492 117.094L691.735 112.851C690.708 111.825 689.977 110.156 689.977 107.355H683.977ZM687.492 117.094C689.991 119.593 693.442 120.609 697.328 120.609V114.609C694.443 114.609 692.751 113.867 691.735 112.851L687.492 117.094ZM697.328 120.609H742.934V114.609H697.328V120.609ZM742.934 120.609C746.856 120.609 750.351 119.607 752.809 117.054L748.487 112.892C747.561 113.854 745.912 114.609 742.934 114.609V120.609ZM752.809 117.054C755.21 114.56 756.188 111.166 756.188 107.355H750.188C750.188 110.185 749.472 111.869 748.487 112.892L752.809 117.054ZM756.188 107.355V73.1758H750.188V107.355H756.188Z" fill="#00FD28"/>
</svg>
